<?xml version="1.0" encoding="UTF-8"?>
<svg version="1.1" xmlns="http://www.w3.org/2000/svg" width="361" height="367">
<path d="M0 0 C0.84369141 0.20931152 1.68738281 0.41862305 2.55664062 0.63427734 C48.42985733 12.31756055 88.24292185 38.94696833 114 79 C114.39541992 79.60730957 114.79083984 80.21461914 115.19824219 80.84033203 C127.24254642 99.55628299 135.17045332 120.32704718 140 142 C140.26466064 143.14009521 140.26466064 143.14009521 140.53466797 144.30322266 C145.70475692 167.560937 145.37975973 195.82527246 140 219 C139.81195801 219.84385254 139.62391602 220.68770508 139.43017578 221.55712891 C128.35630207 269.9315446 98.62375886 311.87231937 56.74707031 338.42871094 C39.15788912 349.14091903 19.95752572 356.14738134 0 361 C-0.71784668 361.17934082 -1.43569336 361.35868164 -2.17529297 361.54345703 C-24.47884057 366.83930057 -52.79089378 366.5818887 -75 361 C-75.84369141 360.79068848 -76.68738281 360.58137695 -77.55664062 360.36572266 C-123.42985733 348.68243945 -163.24292185 322.05303167 -189 282 C-189.59312988 281.08903564 -189.59312988 281.08903564 -190.19824219 280.15966797 C-202.24254642 261.44371701 -210.17045332 240.67295282 -215 219 C-215.17644043 218.23993652 -215.35288086 217.47987305 -215.53466797 216.69677734 C-220.70475692 193.439063 -220.37975973 165.17472754 -215 142 C-214.81195801 141.15614746 -214.62391602 140.31229492 -214.43017578 139.44287109 C-203.35630207 91.0684554 -173.62375886 49.12768063 -131.74707031 22.57128906 C-114.15788912 11.85908097 -94.95752572 4.85261866 -75 0 C-74.28215332 -0.17934082 -73.56430664 -0.35868164 -72.82470703 -0.54345703 C-50.52115943 -5.83930057 -22.20910622 -5.5818887 0 0 Z " fill="#F6B63B" transform="translate(218,3)"/>
<path d="M0 0 C0.84369141 0.20931152 1.68738281 0.41862305 2.55664062 0.63427734 C48.42985733 12.31756055 88.24292185 38.94696833 114 79 C114.39541992 79.60730957 114.79083984 80.21461914 115.19824219 80.84033203 C127.24254642 99.55628299 135.17045332 120.32704718 140 142 C140.26466064 143.14009521 140.26466064 143.14009521 140.53466797 144.30322266 C145.70475692 167.560937 145.37975973 195.82527246 140 219 C139.81195801 219.84385254 139.62391602 220.68770508 139.43017578 221.55712891 C128.35630207 269.9315446 98.62375886 311.87231937 56.74707031 338.42871094 C39.15788912 349.14091903 19.95752572 356.14738134 0 361 C-0.71784668 361.17934082 -1.43569336 361.35868164 -2.17529297 361.54345703 C-24.47884057 366.83930057 -52.79089378 366.5818887 -75 361 C-75.84369141 360.79068848 -76.68738281 360.58137695 -77.55664062 360.36572266 C-123.42985733 348.68243945 -163.24292185 322.05303167 -189 282 C-189.59312988 281.08903564 -189.59312988 281.08903564 -190.19824219 280.15966797 C-202.24254642 261.44371701 -210.17045332 240.67295282 -215 219 C-215.17644043 218.23993652 -215.35288086 217.47987305 -215.53466797 216.69677734 C-220.70475692 193.439063 -220.37975973 165.17472754 -215 142 C-214.81195801 141.15614746 -214.62391602 140.31229492 -214.43017578 139.44287109 C-203.35630207 91.0684554 -173.62375886 49.12768063 -131.74707031 22.57128906 C-114.15788912 11.85908097 -94.95752572 4.85261866 -75 0 C-74.28215332 -0.17934082 -73.56430664 -0.35868164 -72.82470703 -0.54345703 C-50.52115943 -5.83930057 -22.20910622 -5.5818887 0 0 Z M-137 53 C-137.67627488 61.79157349 -138.16880554 70.45397292 -138.375 79.25 C-138.82332716 95.80169801 -139.88222098 112.30958358 -140.98388672 128.82910156 C-141.68852903 139.57367012 -142.22169693 150.23002761 -142 161 C-142.66 161 -143.32 161 -144 161 C-144.04898438 162.14210938 -144.09796875 163.28421875 -144.1484375 164.4609375 C-144.59169575 174.24134877 -145.20678022 183.99156897 -146 193.75 C-146.79275132 203.52412329 -147.34130435 213.28373462 -147.65820312 223.08496094 C-147.79486219 227.08014689 -147.95184467 231.01854901 -148.5 234.98046875 C-149.19651506 240.03068266 -149.27653631 245.09717776 -149.4375 250.1875 C-149.71666628 258.06264209 -150.21646166 265.85364636 -151.0625 273.6875 C-154.04472461 296.54503885 -154.04472461 296.54503885 -146.3046875 317.22265625 C-140.88138064 323.27172929 -134.64836447 326.50656898 -126.50930595 327.37054253 C-122.34928743 327.5121168 -118.20620554 327.53007461 -114.04467773 327.50170898 C-112.45190963 327.50549846 -110.85914483 327.51100365 -109.26638794 327.51808167 C-104.96678426 327.53197061 -100.66758369 327.52091349 -96.36800265 327.50437045 C-91.85454973 327.49045435 -87.34111865 327.49698738 -82.82765198 327.50050354 C-75.25132805 327.50320022 -67.67516305 327.48977588 -60.09887695 327.46655273 C-51.35553871 327.43993681 -42.61246588 327.43820099 -33.86910099 327.4499411 C-25.43609201 327.46074144 -17.00317849 327.45451474 -8.57017708 327.44038582 C-4.99104604 327.43464654 -1.41198533 327.43469241 2.16714668 327.43945122 C6.38538871 327.44424363 10.60334218 327.43402617 14.82152939 327.41249657 C16.36419006 327.40695959 17.90687863 327.40643481 19.44954109 327.41144943 C30.3807417 327.44251177 40.72453439 326.98654662 49 319 C54.40736577 312.187006 56.33756177 305.23523855 55.9765625 296.53515625 C55.93902359 295.51789711 55.93902359 295.51789711 55.90072632 294.48008728 C55.81936507 292.34031745 55.72246167 290.20159066 55.625 288.0625 C55.56667419 286.60095236 55.50937295 285.13936346 55.453125 283.67773438 C55.31391514 280.1179356 55.16077156 276.55889774 55 273 C55.76908691 273.02682861 56.53817383 273.05365723 57.33056641 273.08129883 C63.81131738 273.2115576 69.26737946 272.84932512 75.375 270.6875 C76.03371094 270.47416016 76.69242188 270.26082031 77.37109375 270.04101562 C91.0972297 265.47018506 104.03326574 256.36686795 111.3125 243.6875 C117.21640498 231.55847064 118.5848556 221.383419 118.4609375 208.1171875 C118.45854653 206.4095168 118.45764913 204.70184344 118.4581604 202.99417114 C118.45505214 199.43555957 118.43863847 195.87735651 118.41162109 192.31884766 C118.37759251 187.78224717 118.36999535 183.24609242 118.37151146 178.7093792 C118.37096495 175.19011263 118.35995376 171.67094136 118.34550858 168.1517067 C118.33919477 166.4797449 118.33521454 164.80777245 118.33372116 163.13579941 C118.31149011 151.26282394 117.90302208 140.58461852 112.3125 129.875 C111.95365723 129.18196777 111.59481445 128.48893555 111.22509766 127.77490234 C103.98501054 114.18813117 90.67843648 103.67787628 75.9296875 98.984375 C65.38680138 96.3862578 53.75841245 97.55778026 43 98 C43.01087646 97.29472168 43.02175293 96.58944336 43.03295898 95.86279297 C43.10103879 87.90718147 42.68360697 80.05402517 42.0625 72.125 C41.97548828 70.94164063 41.88847656 69.75828125 41.79882812 68.5390625 C41.39876636 63.2760277 40.86982259 58.21893552 40 53 C-18.41 53 -76.82 53 -137 53 Z " fill="#1D1D1D" transform="translate(218,3)"/>
<path d="M0 0 C3.42673696 1.52739084 6.05841282 3.54331171 8.9375 5.9375 C9.90945312 6.74445313 10.88140625 7.55140625 11.8828125 8.3828125 C12.9224447 9.25452934 13.96149922 10.12693556 15 11 C15.76908691 11.64533691 15.76908691 11.64533691 16.55371094 12.30371094 C22.17937321 17.02982946 27.7687185 21.79750499 33.33886719 26.58886719 C38.90692519 31.37757973 44.52103215 36.09270305 50.22265625 40.72265625 C53.34396367 43.28204054 56.4245003 45.88593791 59.5 48.5 C64.34675531 52.61871109 69.24530894 56.66600931 74.1796875 60.6796875 C77.3577049 63.29428907 80.49230145 65.9564721 83.625 68.625 C87.21461474 71.67964669 90.82454246 74.68974782 94.5625 77.5625 C98.27939542 80.41951663 101.9366855 83.34119151 105.5625 86.3125 C106.10011963 86.74570557 106.63773926 87.17891113 107.19165039 87.62524414 C108.49970349 88.70503207 109.75519418 89.84787008 111 91 C111 91.66 111 92.32 111 93 C108.99329215 94.70173705 106.97511831 96.29549925 104.875 97.875 C99.7866155 101.77955627 94.83633723 105.78735176 90 110 C84.84881856 114.47348927 79.57576209 118.73933441 74.1862793 122.92138672 C69.58439437 126.50557812 65.11908933 130.22890538 60.68334961 134.01586914 C57.32151553 136.88565249 53.9294585 139.71077326 50.5 142.5 C46.436691 145.80624415 42.42712432 149.16829865 38.4375 152.5625 C33.97952309 156.35152134 29.47229596 160.05882658 24.87890625 163.68359375 C22.48699761 165.60815525 20.12815564 167.56105382 17.77734375 169.53515625 C17.02227539 170.16639404 16.26720703 170.79763184 15.48925781 171.44799805 C13.98036222 172.71122598 12.47563658 173.97945533 10.97558594 175.25317383 C7.47461905 178.17642474 4.45752189 180.68638844 0 182 C-4.42336588 177.11862893 -8.76229124 172.16861217 -13 167.125 C-13.763125 166.22007812 -14.52625 165.31515625 -15.3125 164.3828125 C-17 162 -17 162 -17 159 C-15.0859375 157.16015625 -15.0859375 157.16015625 -12.375 155.0625 C-10.8590625 153.86367188 -10.8590625 153.86367188 -9.3125 152.640625 C-8.49845703 151.99770508 -8.49845703 151.99770508 -7.66796875 151.34179688 C-4.84302265 149.06926998 -2.11425772 146.68696742 0.625 144.3125 C9.62173742 136.55336256 18.81400198 129.03010921 28.03125 121.53515625 C33.04976136 117.45392569 37.98527283 113.2960358 42.875 109.0625 C49.38145958 103.43456114 56.12203909 98.16418327 63 93 C61.5409782 89.44997371 59.72582586 87.73986477 56.6875 85.4375 C52.69088463 82.33726836 48.78238207 79.16058323 44.9375 75.875 C39.85786071 71.54778704 34.72322358 67.29260129 29.5625 63.0625 C23.57951717 58.1564809 17.67258346 53.17412115 11.81665039 48.11743164 C7.84246648 44.69513787 3.7810826 41.40580433 -0.3359375 38.15625 C-6.00136369 33.57074376 -11.48677584 28.76647622 -17 24 C-15.45887007 19.21343175 -12.74544553 15.84307502 -9.625 12 C-9.14289063 11.39671875 -8.66078125 10.7934375 -8.1640625 10.171875 C-6.78138978 8.4435341 -5.39125453 6.7214347 -4 5 C-2.66612631 3.33376576 -1.33256301 1.66728263 0 0 Z " fill="#2A292A" transform="translate(133,95)"/>
<path d="M0 0 C3.52067351 -0.08782542 7.04106144 -0.14066643 10.5625 -0.1875 C11.55314453 -0.21263672 12.54378906 -0.23777344 13.56445312 -0.26367188 C23.19024535 -0.35961 29.89726213 2.37801513 37 9 C38.7297211 11.28008691 39.75329312 13.36806325 41 16 C41.78122475 17.6218924 41.78122475 17.6218924 42.57823181 19.27655029 C44.06772043 23.17735213 44.39660987 25.98300961 44.43579102 30.13769531 C44.44586685 30.81355179 44.45594269 31.48940826 44.46632385 32.18574524 C44.49460775 34.4000444 44.50067066 36.61365691 44.50390625 38.828125 C44.51356263 40.38360868 44.52365621 41.93908971 44.53416443 43.49456787 C44.55207807 46.74920966 44.55769058 50.00361321 44.5559082 53.25830078 C44.55560399 57.40200211 44.5965133 61.54415363 44.64822483 65.68748856 C44.68180432 68.89972765 44.6876592 72.11160096 44.68607903 75.3239975 C44.68958829 76.85005777 44.70268245 78.3761307 44.72607613 79.90201569 C44.87356392 90.51720915 43.49145601 98.69642339 36.3205719 106.92779541 C31.1141337 112.13987028 23.85190497 114.821136 16.58251953 115.15869141 C15.44411621 115.13983887 14.30571289 115.12098633 13.1328125 115.1015625 C11.40248779 115.07956787 11.40248779 115.07956787 9.63720703 115.05712891 C8.76692871 115.03827637 7.89665039 115.01942383 7 115 C6.44276541 107.48292823 5.89226156 99.96538298 5.34594727 92.44750977 C5.16024017 89.90215489 4.97311803 87.35690276 4.78442383 84.81176758 C3.74150332 70.73095017 2.83341369 56.66793326 2.3253479 42.55697632 C2.02551411 34.25160566 1.53686992 25.97656398 0.9375 17.6875 C0.75796523 15.14982064 0.57952661 12.61206341 0.40234375 10.07421875 C0.32491943 8.99744873 0.24749512 7.92067871 0.16772461 6.8112793 C0.03246744 4.54419584 0 2.27111468 0 0 Z " fill="#1F1E1E" transform="translate(263,131)"/>
<path d="M0 0 C43.35907386 -0.75673672 43.35907386 -0.75673672 62 6 C62 6.66 62 7.32 62 8 C54.25 8.125 54.25 8.125 52 7 C50.17111176 6.71990165 48.33467213 6.48841376 46.49609375 6.28125 C44.80685791 6.09054932 44.80685791 6.09054932 43.08349609 5.89599609 C41.88031738 5.76531738 40.67713867 5.63463867 39.4375 5.5 C38.22143066 5.3654541 37.00536133 5.2309082 35.75244141 5.09228516 C28.09633662 4.26775036 20.45832073 3.59706756 12.76342773 3.29101562 C8.09381826 3.09381826 8.09381826 3.09381826 7 2 C4.67182036 1.63239269 2.3381615 1.29758419 0 1 C0 0.67 0 0.34 0 0 Z " fill="#3E3E41" transform="translate(166,0)"/>
<path d="M0 0 C0.66 0.33 1.32 0.66 2 1 C1.58226318 1.38744385 1.16452637 1.7748877 0.73413086 2.17407227 C-1.19936653 3.96883381 -3.130938 5.7656558 -5.0625 7.5625 C-5.71927734 8.17158203 -6.37605469 8.78066406 -7.05273438 9.40820312 C-13.14861572 15.08367886 -19.16028835 20.73660537 -24.375 27.25 C-25.12394531 28.17941406 -25.87289062 29.10882813 -26.64453125 30.06640625 C-27.42183594 31.03449219 -28.19914062 32.00257812 -29 33 C-30.6831081 35.06612926 -32.37295115 37.12662173 -34.0625 39.1875 C-34.81660156 40.10917969 -35.57070313 41.03085938 -36.34765625 41.98046875 C-36.89292969 42.64691406 -37.43820313 43.31335938 -38 44 C-38 34.88510762 -23.15008781 21.53379903 -17 15 C-5.99130435 3.9942029 -5.99130435 3.9942029 0 0 Z " fill="#383839" transform="translate(69,38)"/>
<path d="M0 0 C-3.4864973 2.89210718 -7.37382819 4.70200814 -11.4375 6.625 C-18.28128014 9.9294896 -24.3312886 13.78559956 -30.42578125 18.3125 C-33 20 -33 20 -36 20 C-32.74030949 16.46392675 -29.05713345 13.81878429 -25.0625 11.1875 C-24.40660889 10.7546167 -23.75071777 10.3217334 -23.07495117 9.87573242 C-4.84351698 -1.9998292 -4.84351698 -1.9998292 0 0 Z " fill="#262628" transform="translate(106,18)"/>
<path d="M0 0 C9.83908078 0.33184084 18.63005352 2.2136397 28 5 C28 5.66 28 6.32 28 7 C20.25 7.125 20.25 7.125 18 6 C15.45802036 5.6087065 12.92608411 5.25520881 10.375 4.9375 C9.66859375 4.84662109 8.9621875 4.75574219 8.234375 4.66210938 C6.4899959 4.43816881 4.74504866 4.21866182 3 4 C3.99 3.34 4.98 2.68 6 2 C3.03 1.505 3.03 1.505 0 1 C0 0.67 0 0.34 0 0 Z " fill="#343536" transform="translate(200,1)"/>
<path d="M0 0 C2.31243792 -0.02685412 4.6249627 -0.04632841 6.9375 -0.0625 C8.22527344 -0.07410156 9.51304687 -0.08570313 10.83984375 -0.09765625 C14 -0 14 -0 15 1 C18.32947093 1.28538322 21.65897628 1.44892633 24.99609375 1.62109375 C28 2 28 2 30 4 C26.35383329 3.86183041 22.70816926 3.71318466 19.0625 3.5625 C18.02158203 3.52318359 16.98066406 3.48386719 15.90820312 3.44335938 C14.91884766 3.40146484 13.92949219 3.35957031 12.91015625 3.31640625 C11.99371338 3.27974854 11.07727051 3.24309082 10.13305664 3.20532227 C8 3 8 3 7 2 C4.67182036 1.63239269 2.3381615 1.29758419 0 1 C0 0.67 0 0.34 0 0 Z " fill="#313234" transform="translate(166,0)"/>
<path d="M0 0 C7.75 0.875 7.75 0.875 10 2 C10 2.66 10 3.32 10 4 C7.36 4 4.72 4 2 4 C2.33 3.34 2.66 2.68 3 2 C2.01 1.34 1.02 0.68 0 0 Z " fill="#2E2E2F" transform="translate(218,4)"/>
</svg>
